<?xml version="1.0" standalone="no"?>
<!DOCTYPE svg PUBLIC "-//W3C//DTD SVG 20010904//EN"
 "http://www.w3.org/TR/2001/REC-SVG-20010904/DTD/svg10.dtd">
<svg version="1.0" xmlns="http://www.w3.org/2000/svg"
 width="850.000000pt" height="714.000000pt" viewBox="0 0 850.000000 714.000000"
 preserveAspectRatio="xMidYMid meet">

<g transform="translate(0.000000,714.000000) scale(0.100000,-0.100000)"
fill="#000000" stroke="none">
<path d="M4425 6164 c-67 -103 -182 -161 -337 -171 -72 -5 -92 -3 -113 11 -29
19 -45 14 -45 -16 0 -46 -33 -87 -117 -147 -83 -59 -182 -101 -239 -101 -27 0
-41 -21 -50 -80 -15 -94 -133 -226 -266 -299 l-66 -36 1 -120 c2 -118 1 -122
-31 -188 -24 -49 -51 -83 -102 -128 l-69 -62 39 -46 c120 -145 157 -304 106
-456 -13 -38 -22 -73 -19 -77 2 -5 18 -8 34 -8 42 0 128 -43 166 -82 37 -38
93 -141 93 -170 0 -11 -8 -42 -17 -68 -16 -45 -16 -55 0 -171 21 -150 21 -172
3 -207 -28 -53 -130 -139 -221 -188 -125 -66 -155 -86 -196 -131 -79 -85 -87
-142 -37 -234 31 -56 32 -61 17 -87 -14 -26 -19 -27 -94 -28 -44 0 -91 -4
-103 -8 -32 -11 -53 -64 -62 -156 -7 -66 -11 -77 -39 -102 -17 -15 -39 -28
-48 -28 -26 0 -91 76 -103 120 -6 22 -8 56 -4 75 7 39 0 45 -16 14 -43 -79
-55 -303 -21 -400 10 -30 29 -71 41 -92 l23 -38 -29 -30 c-42 -44 -76 -59
-136 -59 -91 0 -236 -29 -301 -59 -69 -33 -296 -226 -385 -329 -137 -156 -212
-298 -212 -398 0 -64 16 -62 23 4 15 153 126 311 387 550 175 160 275 202 482
202 l90 0 38 39 c56 57 121 99 250 158 134 62 241 99 263 90 10 -4 18 -25 22
-64 14 -124 50 -354 65 -413 5 -19 16 -66 25 -105 22 -90 58 -197 105 -310 21
-49 43 -110 50 -135 7 -25 31 -74 55 -110 23 -36 57 -91 75 -123 18 -31 40
-61 49 -66 18 -10 101 -23 101 -17 0 2 -22 12 -50 21 -48 16 -52 20 -104 114
-30 53 -67 128 -81 166 -71 187 -126 355 -131 402 -6 46 -4 55 20 83 14 17 26
35 26 40 0 5 26 23 58 42 52 30 64 33 132 32 41 -1 93 -9 115 -17 45 -17 44
-16 95 -187 18 -58 49 -145 70 -195 21 -49 45 -111 54 -136 18 -56 107 -238
137 -282 29 -41 81 -97 91 -97 16 0 7 21 -26 57 -58 65 -93 130 -152 282 -31
80 -74 187 -94 236 -33 78 -65 176 -100 305 -15 57 -61 211 -78 265 -34 103
-14 293 48 465 17 47 33 91 36 99 3 11 7 12 16 3 19 -19 28 -14 28 15 0 40 13
20 54 -82 20 -49 56 -125 81 -167 25 -43 45 -80 45 -83 0 -17 115 -158 142
-175 35 -21 48 -18 48 11 0 27 22 24 53 -9 38 -39 177 -135 282 -194 99 -55
176 -123 206 -181 11 -20 24 -37 29 -37 6 0 42 29 81 65 75 69 293 235 308
235 5 0 11 -10 13 -21 3 -18 16 -9 90 62 47 46 103 110 123 142 21 31 41 57
46 57 4 0 7 -51 7 -113 0 -115 26 -252 57 -294 24 -32 27 -6 7 59 -11 34 -23
90 -26 123 -9 72 -2 65 62 -60 63 -124 92 -195 92 -225 0 -15 6 -33 14 -39 8
-7 15 -40 18 -90 3 -50 11 -89 21 -105 9 -14 28 -67 41 -118 14 -51 30 -109
36 -128 7 -23 9 -75 4 -149 l-6 -114 39 6 c22 4 54 2 72 -3 27 -7 32 -6 29 7
-6 29 -34 39 -73 24 -20 -7 -38 -11 -40 -9 -3 2 0 44 6 94 9 73 8 100 -5 149
-21 84 -55 220 -71 285 -8 30 -19 81 -25 113 l-12 59 44 56 c66 85 119 122
176 122 64 0 108 -29 133 -85 27 -61 75 -237 84 -305 4 -30 16 -86 27 -125 28
-99 39 -172 36 -225 -3 -44 -4 -45 -45 -54 -24 -5 -43 -15 -43 -22 0 -7 -3
-21 -6 -31 -5 -17 -5 -17 9 0 8 10 34 23 58 30 37 11 44 17 51 47 12 49 1 134
-31 263 -16 62 -32 132 -35 157 -7 46 -42 179 -56 215 -41 104 -88 265 -78
265 2 0 47 -18 98 -40 51 -22 106 -40 122 -40 25 0 88 -18 348 -101 36 -12
106 -40 155 -63 296 -140 500 -331 589 -552 50 -122 49 -121 53 -101 10 42
-58 196 -130 292 -83 112 -158 181 -294 269 -189 122 -360 194 -608 258 l-90
23 0 94 c0 101 -10 121 -35 69 -19 -39 -50 -52 -79 -32 -26 18 -28 77 -6 131
21 49 19 102 -5 140 -25 42 -57 49 -119 28 -59 -19 -89 -13 -97 21 -7 27 -6
35 27 212 34 188 20 228 -138 391 -109 112 -123 144 -130 296 l-5 110 41 85
c71 151 76 220 15 220 -13 0 -24 4 -24 9 0 5 12 53 26 107 17 64 26 120 24
159 -6 178 -5 188 24 251 19 43 50 83 107 140 43 43 79 83 79 88 0 5 -11 23
-24 40 -27 36 -59 103 -76 162 -13 42 -9 332 5 385 6 23 2 29 -38 52 -87 51
-164 147 -238 298 -53 107 -69 119 -156 119 -57 0 -131 38 -176 90 -19 22 -49
78 -67 123 -17 45 -35 86 -39 90 -5 4 -37 1 -73 -8 -59 -15 -69 -15 -129 0
-71 18 -118 43 -229 122 -41 29 -80 53 -86 53 -7 0 -19 -12 -29 -26z m233
-309 c95 -19 285 -112 392 -190 167 -124 306 -286 385 -449 47 -95 56 -128 41
-136 -6 -3 -20 22 -33 55 -45 113 -72 162 -119 221 -171 210 -421 378 -634
425 -236 52 -477 -6 -720 -172 -141 -97 -267 -226 -340 -351 -24 -40 -47 -75
-50 -78 -11 -7 -76 -186 -93 -255 -23 -91 -28 -161 -19 -255 l9 -85 2 105 c2
195 36 320 139 515 32 61 128 182 200 253 171 167 437 299 634 316 259 21 524
-99 770 -350 91 -94 141 -156 152 -192 12 -36 -7 -25 -37 22 -42 67 -163 175
-261 233 -49 29 -138 69 -199 90 -109 37 -116 38 -252 38 -111 -1 -157 -5
-222 -22 -198 -53 -316 -117 -444 -243 -109 -108 -169 -195 -244 -354 -84
-180 -117 -347 -115 -581 2 -189 3 -178 -16 -171 -12 5 -15 2 -11 -13 6 -26
-9 -49 -23 -35 -16 16 -86 229 -105 319 -10 48 -17 135 -18 220 l-2 140 49
140 c69 199 78 218 156 355 49 85 150 190 268 277 85 63 249 152 328 177 146
47 296 58 432 31z m333 -505 c12 -47 28 -100 36 -118 l13 -33 45 26 c55 33
100 31 128 -6 17 -23 18 -31 8 -62 -7 -20 -17 -37 -22 -39 -13 -4 6 -58 21
-58 5 0 10 5 10 10 0 18 66 43 95 36 26 -7 26 -8 20 -61 -4 -30 -5 -55 -2 -55
2 0 18 7 33 15 39 20 87 19 115 -4 l23 -18 -30 -14 c-22 -11 -30 -22 -32 -46
l-3 -32 49 6 c28 3 52 1 55 -4 4 -6 -1 -29 -10 -52 -15 -39 -15 -46 0 -95 24
-74 22 -163 -3 -201 -13 -19 -20 -47 -20 -77 0 -67 -16 -70 -67 -13 -24 26
-46 45 -49 42 -3 -3 1 -27 9 -54 8 -26 22 -84 32 -128 9 -44 21 -96 25 -115
21 -83 41 -192 36 -197 -2 -3 -24 4 -48 15 -73 32 -171 45 -287 39 -58 -3
-113 -8 -121 -12 -41 -16 -113 -168 -145 -305 -15 -68 -18 -232 -5 -285 5 -19
8 16 8 90 0 149 14 232 55 315 30 62 35 66 87 84 30 10 107 27 170 37 108 18
120 18 195 3 44 -9 83 -21 86 -26 9 -15 -18 -99 -40 -122 -55 -61 -69 -139
-46 -253 12 -57 16 -118 13 -196 -3 -110 -4 -115 -46 -198 -43 -85 -137 -220
-158 -226 -6 -2 -14 10 -17 27 -9 44 -55 133 -86 167 -14 15 -47 45 -73 67
-45 36 -48 40 -42 76 4 25 1 47 -11 69 -22 44 -29 34 -9 -15 18 -48 6 -94 -25
-94 -12 0 -34 -20 -55 -49 -20 -27 -42 -52 -49 -54 -20 -7 -49 12 -109 74 -81
82 -118 98 -118 48 0 -21 -16 -26 -22 -7 -15 45 32 139 58 117 7 -6 19 -9 26
-7 22 8 -26 28 -50 21 -13 -3 -27 -21 -38 -49 -17 -45 -23 -49 -89 -59 -22 -4
-49 -10 -60 -15 -137 -56 -232 -133 -278 -224 -16 -31 -32 -56 -37 -56 -11 0
-88 92 -121 145 -53 83 -71 151 -71 273 0 81 -4 112 -13 112 -12 0 -35 -41
-35 -64 0 -8 -7 -19 -15 -26 -13 -10 -15 -9 -15 11 1 49 31 165 70 270 52 135
76 221 95 329 19 111 31 335 18 343 -5 3 -58 -43 -117 -103 -117 -118 -174
-154 -264 -167 l-52 -8 55 -85 c30 -47 55 -90 55 -96 0 -6 7 -18 16 -25 14
-11 15 -27 10 -94 -14 -172 -67 -477 -86 -500 -6 -7 -15 -43 -20 -81 -14 -100
-26 -154 -44 -199 -8 -22 -15 -63 -16 -92 0 -43 -4 -55 -25 -71 -21 -17 -32
-18 -65 -11 -63 14 -108 40 -120 69 -12 30 -5 76 16 101 12 14 12 21 -1 52
-34 82 -7 163 86 260 36 37 62 70 58 72 -3 3 -7 49 -8 102 -2 138 -17 263 -44
371 l-23 92 21 75 c22 74 39 105 58 105 5 0 25 18 44 39 24 29 43 41 73 46 57
10 179 100 316 235 l116 112 -25 27 c-31 33 -47 64 -47 90 0 26 -7 26 -47 2
-45 -28 -106 -109 -150 -199 -52 -106 -206 -258 -202 -199 0 6 24 30 52 52 49
39 64 59 147 205 45 81 94 137 150 172 l45 29 11 82 c10 70 9 87 -4 115 -13
29 -13 35 -1 43 31 20 65 22 112 5 27 -10 52 -15 55 -11 4 4 7 32 7 63 0 52 2
57 26 66 38 13 74 1 119 -40 35 -32 42 -35 57 -23 28 24 54 94 47 128 -6 29
-5 31 25 31 47 0 108 -35 138 -81 18 -27 29 -37 36 -30 8 8 4 23 -12 51 -20
36 -21 42 -7 67 18 36 54 69 87 82 31 11 67 -4 112 -47 24 -23 30 -24 38 -12
21 30 69 135 69 151 0 19 22 41 31 32 4 -5 17 -46 30 -93z m569 -1475 c16 -20
2 -74 -44 -160 l-31 -60 -3 55 c-5 78 6 138 29 161 23 23 33 24 49 4z m-960
-615 c9 -16 21 -20 67 -20 54 0 58 -2 102 -49 60 -63 76 -68 110 -33 15 15 32
35 37 45 7 11 26 20 50 23 37 4 45 0 100 -49 55 -50 104 -125 104 -159 0 -8 6
-20 13 -27 20 -20 13 -185 -11 -256 -30 -89 -53 -135 -95 -192 -40 -55 -124
-123 -150 -123 -9 0 -19 -4 -22 -10 -14 -23 -138 -50 -229 -50 -292 1 -512
176 -532 425 -17 220 99 395 312 470 86 31 130 32 144 5z m921 -17 c16 -19 31
-49 50 -98 7 -16 16 -73 20 -125 5 -52 11 -121 15 -153 4 -44 2 -63 -11 -83
-21 -33 -73 -64 -107 -64 -27 0 -28 2 -28 50 0 44 17 127 35 171 3 9 17 21 31
27 21 10 24 18 24 59 0 27 -12 80 -26 118 -33 92 -38 115 -27 115 6 0 16 -8
24 -17z"/>
<path d="M3482 4545 c0 -16 2 -22 5 -12 2 9 2 23 0 30 -3 6 -5 -1 -5 -18z"/>
<path d="M3512 4410 c0 -14 2 -19 5 -12 2 6 2 18 0 25 -3 6 -5 1 -5 -13z"/>
<path d="M3536 4325 c6 -31 11 -41 18 -34 2 2 -2 18 -10 34 l-14 30 6 -30z"/>
<path d="M4885 5240 c-90 -178 -115 -259 -115 -367 0 -119 29 -172 114 -207
80 -33 120 -16 156 66 47 107 36 315 -24 453 -18 41 -45 120 -60 180 -2 6 -34
-51 -71 -125z m94 -88 c82 -266 78 -405 -14 -449 -28 -14 -38 -14 -65 -3 -17
7 -40 26 -51 41 -18 25 -20 40 -16 117 2 48 11 114 20 147 22 84 80 245 89
245 4 0 21 -44 37 -98z"/>
<path d="M4677 5262 c-26 -27 -35 -61 -20 -75 4 -4 13 7 20 24 15 35 37 34 41
-3 2 -16 -12 -48 -42 -92 -55 -82 -96 -181 -96 -232 0 -52 34 -120 68 -132 38
-14 122 -41 122 -39 0 1 -7 20 -15 42 -32 90 -11 258 49 387 14 31 26 61 26
66 0 5 -16 25 -35 45 -45 46 -80 49 -118 9z"/>
<path d="M5110 5206 c-51 -26 -52 -31 -25 -139 8 -32 15 -103 15 -156 0 -92
-8 -132 -46 -225 -7 -17 -4 -18 41 -12 64 10 89 28 116 83 18 38 21 57 17 126
-4 68 -12 99 -46 180 -43 99 -47 133 -11 101 18 -16 19 -16 19 14 0 47 -26 56
-80 28z"/>
<path d="M4480 5174 c-6 -14 -10 -28 -10 -31 0 -4 -21 -40 -46 -81 -45 -71
-47 -78 -48 -151 -1 -42 5 -90 12 -106 l13 -31 88 0 89 -1 -15 36 c-20 47 -11
152 16 206 35 67 24 113 -39 160 -42 31 -48 31 -60 -1z"/>
<path d="M4227 5044 c-3 -30 -12 -63 -19 -71 -9 -11 -13 -47 -13 -107 0 -81 3
-95 24 -123 14 -18 32 -33 41 -33 14 0 97 35 109 46 2 1 -5 23 -14 48 -17 45
-17 54 0 186 6 41 3 48 -25 78 -23 23 -40 32 -64 32 -33 0 -33 0 -39 -56z"/>
<path d="M5270 5064 c-30 -26 -32 -30 -24 -68 4 -23 8 -81 8 -131 1 -75 -3
-97 -21 -133 -13 -23 -23 -44 -23 -45 0 -1 18 -1 40 1 32 3 46 11 68 40 23 31
27 44 26 101 0 41 -9 90 -22 128 -16 45 -19 69 -13 86 16 42 -2 51 -39 21z"/>
<path d="M4065 4992 c-6 -4 -11 -70 -13 -149 -3 -150 3 -177 45 -215 18 -16
21 -16 74 20 l55 37 -33 48 c-37 55 -49 117 -34 174 6 23 9 47 6 56 -11 27
-76 47 -100 29z"/>
<path d="M5380 4972 c-21 -17 -21 -20 -10 -79 14 -68 7 -140 -15 -169 -23 -30
-18 -42 24 -63 31 -16 42 -18 55 -8 28 20 30 85 7 168 -25 91 -26 126 -4 151
15 17 15 18 -9 18 -14 0 -36 -8 -48 -18z"/>
<path d="M5477 4863 c-12 -3 -16 -10 -12 -21 9 -24 25 -111 25 -137 0 -12 -10
-38 -23 -56 l-23 -34 20 -21 c68 -69 96 14 49 143 -11 29 -13 57 -9 88 4 25 4
44 -1 44 -4 -1 -16 -3 -26 -6z"/>
<path d="M4430 4743 c-44 -8 -190 -81 -258 -130 -37 -26 -103 -83 -147 -127
-149 -151 -257 -235 -333 -261 -25 -9 -38 -20 -40 -34 -2 -13 -15 -24 -35 -31
-26 -8 -21 -9 32 -5 99 8 151 38 271 157 269 267 465 398 596 398 28 0 72 -12
117 -31 141 -60 280 -109 311 -109 18 0 59 9 92 19 159 51 175 54 213 42 35
-10 82 -41 194 -126 l47 -36 0 30 c0 34 -56 95 -129 138 l-44 27 -131 -12
c-73 -7 -157 -19 -188 -27 -56 -14 -56 -14 -145 21 -113 46 -196 72 -290 90
-76 14 -88 15 -133 7z"/>
<path d="M4981 4455 c-7 -22 -16 -92 -20 -156 l-6 -116 -39 -44 c-22 -24 -43
-45 -47 -47 -3 -1 -23 26 -44 60 l-37 63 12 82 c11 73 6 193 -7 180 -2 -3 -11
-32 -19 -66 -7 -33 -27 -91 -44 -127 l-29 -66 23 -46 c14 -26 46 -74 73 -107
64 -79 86 -82 142 -19 66 75 103 136 96 159 -17 53 -26 108 -33 195 l-8 95
-13 -40z"/>
<path d="M4886 4409 c-40 -117 -47 -231 -13 -237 10 -2 25 2 34 9 13 11 15 31
10 117 -5 96 -19 147 -31 111z"/>
<path d="M3537 4123 c-4 -3 -7 -11 -7 -17 0 -6 5 -5 12 2 6 6 9 14 7 17 -3 3
-9 2 -12 -2z"/>
<path d="M4180 4103 c-85 -22 -87 -36 -5 -28 123 12 348 -30 497 -93 22 -9 44
-28 54 -48 10 -18 19 -32 21 -31 6 7 -59 153 -75 170 -10 9 -49 24 -87 32 -92
19 -330 19 -405 -2z"/>
<path d="M3573 3987 c13 -20 13 -25 1 -42 -22 -30 -36 -94 -29 -131 3 -18 21
-56 40 -85 25 -36 35 -63 36 -93 l1 -41 9 32 c10 35 0 64 -42 131 -30 47 -32
143 -4 171 l20 20 23 -33 c21 -31 21 -35 7 -62 -16 -31 -21 -104 -6 -104 4 0
6 11 3 25 -4 26 15 85 28 85 4 0 15 -15 25 -34 18 -33 18 -35 -3 -91 -26 -66
-28 -104 -8 -131 13 -17 14 -13 9 38 -5 46 -1 65 17 102 l22 46 -34 66 c-34
67 -101 154 -120 154 -6 0 -4 -10 5 -23z"/>
<path d="M4133 3867 c17 -17 27 -36 27 -55 0 -46 58 -124 100 -137 19 -5 42
-14 50 -20 25 -16 282 -50 307 -41 15 6 18 73 3 96 -6 10 -8 3 -3 -22 8 -55
-9 -71 -66 -63 -61 9 -63 11 -46 45 8 16 15 47 15 70 0 22 4 40 9 40 4 0 25
-11 45 -25 40 -27 48 -20 14 12 -43 39 -123 65 -308 99 -47 9 -105 18 -130 21
l-45 5 28 -25z m182 -33 c7 -3 11 -34 11 -84 l0 -79 -25 5 c-69 16 -131 88
-131 152 0 24 1 24 67 17 36 -4 72 -9 78 -11z m109 -33 c15 -16 15 -22 4 -40
-18 -29 -38 -34 -59 -15 -19 17 -25 54 -12 67 13 13 50 7 67 -12z"/>
<path d="M5315 3808 c-276 -52 -272 -50 -284 -95 -6 -20 -8 -39 -6 -42 3 -2 5
1 5 7 0 14 60 53 71 46 4 -2 5 -19 2 -38 -3 -20 1 -45 11 -64 9 -17 16 -33 16
-35 0 -3 -21 -8 -47 -12 -41 -6 -50 -4 -65 15 l-18 22 0 -27 0 -27 88 7 c80 6
201 34 228 52 11 8 34 47 34 58 0 4 -12 -7 -26 -24 -40 -48 -54 -41 -55 29 -1
33 -2 66 -3 73 -1 8 17 12 57 12 46 0 62 5 73 20 28 38 15 41 -81 23z m-131
-64 c23 -9 20 -57 -4 -79 -19 -17 -21 -17 -40 0 -11 10 -20 24 -20 32 0 12 34
53 44 53 2 0 11 -3 20 -6z"/>
<path d="M5011 3634 c0 -11 3 -14 6 -6 3 7 2 16 -1 19 -3 4 -6 -2 -5 -13z"/>
<path d="M4505 3570 c-28 -7 -28 -8 -5 -9 14 0 32 4 40 9 17 11 8 11 -35 0z"/>
<path d="M5108 3523 c7 -3 16 -2 19 1 4 3 -2 6 -13 5 -11 0 -14 -3 -6 -6z"/>
<path d="M3600 3425 c12 -15 11 -19 -10 -35 -32 -24 -18 -38 15 -16 31 20 31
59 0 65 -17 3 -18 1 -5 -14z"/>
<path d="M4912 3400 c0 -14 2 -19 5 -12 2 6 2 18 0 25 -3 6 -5 1 -5 -13z"/>
<path d="M4921 3354 c0 -11 3 -14 6 -6 3 7 2 16 -1 19 -3 4 -6 -2 -5 -13z"/>
<path d="M3495 3308 c-47 -54 -67 -101 -68 -158 -1 -53 9 -76 26 -61 7 5 29
12 50 16 29 6 42 3 56 -9 24 -22 28 -14 41 70 5 38 12 78 16 89 4 15 -5 30
-36 58 -23 20 -43 37 -45 37 -2 0 -20 -19 -40 -42z"/>
<path d="M4245 2981 c-3 -5 3 -12 14 -16 11 -3 27 -18 37 -32 23 -36 112 -120
149 -140 25 -14 63 -17 230 -18 128 -1 216 -6 243 -14 63 -18 124 5 197 74 53
51 63 75 29 75 -8 0 -14 -10 -14 -24 0 -27 -51 -75 -109 -102 -31 -15 -45 -15
-140 -3 -120 15 -163 16 -277 4 -71 -7 -86 -5 -129 14 -62 27 -122 77 -171
140 -39 52 -48 58 -59 42z"/>
<path d="M4560 2642 c49 -32 226 -54 260 -32 10 7 -8 10 -61 10 -71 0 -147 10
-194 25 -15 5 -17 4 -5 -3z"/>
<path d="M5310 1580 c-14 -5 -65 -21 -115 -36 -119 -36 -211 -83 -263 -133
-49 -48 -62 -75 -55 -114 7 -37 23 -34 23 5 0 71 169 170 418 245 29 9 52 22
52 29 0 15 -22 17 -60 4z"/>
<path d="M3835 1559 c-10 -15 -6 -17 75 -29 68 -10 218 -49 329 -86 74 -25
100 -46 128 -102 32 -65 55 -57 25 9 -48 107 -177 167 -450 208 -90 14 -99 14
-107 0z"/>
<path d="M4430 1400 c0 -5 5 -10 11 -10 5 0 7 5 4 10 -3 6 -8 10 -11 10 -2 0
-4 -4 -4 -10z"/>
<path d="M4706 1375 c-38 -40 -32 -55 6 -18 18 18 29 35 26 39 -4 3 -18 -6
-32 -21z"/>
</g>
</svg>
